#!OML:ASF F:\VICON\USERDATA\INSTALL\rory3\rory3.ASF
:FULLY-SPECIFIED
:DEGREES
94
root 1.92083 17.5183 0.396177 0.953426 -24.0993 -3.6757
lowerback 9.94018 -0.353869 -5.87481
upperback 1.5034 -1.35022 -4.79051
thorax -3.99512 -0.631918 -1.51611
lowerneck -9.37288 6.83314 -10.3113
upperneck 15.027 9.62709 8.08391
head 5.13126 4.7167 4.82707
rclavicle -8.74653e-015 -6.36111e-014
rhumerus -46.2964 7.68719 -62.574
rradius 127.024
rwrist -14.1819
rhand -25.1314 10.6836
rfingers 7.12502
rthumb 1.38463 -19.2917
lclavicle -8.74653e-015 -6.36111e-014
lhumerus 48.1013 -15.081 55.2155
lradius 72.9375
lwrist 21.2183
lhand -13.6313 12.3934
lfingers 7.12502
lthumb 12.4846 42.0005
rfemur 4.57797 15.7814 19.9328
rtibia 49.7056
rfoot 0.168174 -0.138635
rtoes -20.5072
lfemur -33.4797 -8.50251 -2.1936
ltibia 38.0518
lfoot -2.10234 -2.44967
ltoes -7.78872
95
root 1.91461 17.4812 0.49277 1.19905 -22.5835 -3.67627
lowerback 9.95183 -0.00229897 -6.26968
upperback 1.43622 -0.941181 -4.97499
thorax -4.07567 -0.423057 -1.54427
lowerneck -8.75137 6.48651 -10.9745
upperneck 14.4234 9.02195 9.41669
head 4.79013 4.49376 5.26739
rclavicle 3.02153e-014 -8.5875e-014
rhumerus -45.6985 6.70118 -61.7777
rradius 127.797
rwrist -14.1107
rhand -24.7284 10.4628
rfingers 7.12502
rthumb 1.7739 -19.5095
lclavicle 3.02153e-014 -8.5875e-014
lhumerus 48.4486 -18.1024 55.6494
lradius 75.9463
lwrist 19.2066
lhand -13.0188 12.713
lfingers 7.12502
lthumb 13.0751 42.2832
rfemur 4.68767 14.9649 20.3415
rtibia 49.854
rfoot -0.247993 -0.642289
rtoes -21.7817
lfemur -34.6249 -9.52155 -2.23313
ltibia 39.0102
lfoot -2.45844 -3.19733
ltoes -7.02503
96
root 1.9056 17.4443 0.576465 1.44334 -20.9669 -3.49148
lowerback 9.91468 0.31709 -6.89488
upperback 1.43767 -0.590792 -5.18211
thorax -4.05628 -0.242835 -1.46093
lowerneck -8.34478 6.1682 -11.5221
upperneck 14.0572 8.45994 10.7781
head 4.56942 4.28954 5.72885
rclavicle -4.96962e-014 0
rhumerus -44.5551 5.58465 -60.9174
rradius 128.321
rwrist -13.6487
rhand -23.7966 10.5748
rfingers 7.12502
rthumb 2.67379 -19.3882
lclavicle -4.96962e-014 0
lhumerus 48.5745 -20.9374 56.1866
lradius 78.7676
lwrist 17.918
lhand -11.3961 11.4102
lfingers 7.12502
lthumb 14.6389 40.8734
rfemur 4.63105 14.0181 20.6047
rtibia 50.0979
rfoot -0.599744 -1.1836
rtoes -21.566
lfemur -35.9102 -10.3269 -2.47422
ltibia 39.8917
lfoot -2.5529 -4.06654
ltoes -7.19016
97
root 1.89435 17.4129 0.647751 1.8591 -19.2309 -3.288
lowerback 9.75151 0.586376 -7.52929
upperback 1.39509 -0.294346 -5.36856
thorax -4.01561 -0.088574 -1.34387
lowerneck -7.90144 5.89978 -11.9882
upperneck 13.9736 7.94446 12.1299
head 4.43671 4.09945 6.1937
rclavicle -2.74323e-014 -3.18055e-015
rhumerus -43.0977 4.48228 -59.9534
rradius 128.768
rwrist -13.0171
rhand -22.5808 10.4192
rfingers 7.12502
rthumb 3.84791 -19.5258
lclavicle -2.74323e-014 -3.18055e-015
lhumerus 48.4499 -23.8314 56.6288
lradius 81.5529
lwrist 17.0777
lhand -9.79846 9.81773
lfingers 7.12502
lthumb 16.1777 39.1626
rfemur 4.30837 12.9294 20.8753
rtibia 50.3733
rfoot -0.958233 -1.66279
rtoes -24.1776
lfemur -37.4016 -11.0914 -2.7141
ltibia 40.6988
lfoot -2.53135 -5.10549
ltoes -7.96907
98
root 1.87933 17.3882 0.716595 2.35153 -17.4902 -3.10864
lowerback 9.47937 0.908785 -8.05231
upperback 1.32064 0.09668 -5.56931
thorax -3.95529 0.110709 -1.31489
lowerneck -7.21444 5.55245 -12.2784
upperneck 13.9076 7.30886 13.1753
head 4.31484 3.82686 6.52755
rclavicle -1.39149e-014 1.20861e-013
rhumerus -41.6054 3.41008 -58.9434
rradius 129.251
rwrist -12.6554
rhand -22.5776 10.0339
rfingers 7.12502
rthumb 3.85099 -19.9111
lclavicle -1.39149e-014 1.20861e-013
lhumerus 48.0307 -26.9732 57.0256
lradius 84.4431
lwrist 16.4388
lhand -10.1391 10.2031
lfingers 7.12502
lthumb 15.8497 39.5743
rfemur 3.90884 11.7948 21.2065
rtibia 50.6063
rfoot -1.46376 -1.9559
rtoes -20.3733
lfemur -38.852 -11.8056 -2.94788
ltibia 41.4086
lfoot -2.48589 -5.98397
ltoes -8.24519
99
root 1.86512 17.3674 0.787292 2.78842 -15.8067 -3.04071
lowerback 9.18893 1.25986 -8.35095
upperback 1.31622 0.560854 -5.76906
thorax -3.8154 0.33978 -1.41477
lowerneck -6.41699 5.20941 -12.3427
upperneck 13.7648 6.68656 13.8804
head 4.18173 3.54266 6.71364
rclavicle 2.3059e-014 -3.18055e-014
rhumerus -39.8677 2.41942 -57.8905
rradius 129.693
rwrist -12.666
rhand -22.8928 9.69516
rfingers 7.12502
rthumb 3.5466 -20.2551
lclavicle 2.3059e-014 -3.18055e-014
lhumerus 47.2846 -30.0793 57.4788
lradius 87.3707
lwrist 16.2294
lhand -10.6242 11.1929
lfingers 7.12502
lthumb 15.3825 40.6006
rfemur 3.63517 10.6945 21.699
rtibia 50.7171
rfoot -2.34139 -1.9807
rtoes -20.178
lfemur -40.0882 -12.4416 -3.1192
ltibia 42.0039
lfoot -2.37918 -6.6307
ltoes -7.28466
100
root 1.8533 17.3523 0.852331 3.28066 -14.3072 -3.18753
lowerback 8.84563 1.56303 -8.41899
upperback 1.38882 1.0039 -5.91491
thorax -3.56173 0.551937 -1.57574
lowerneck -5.77658 4.94621 -12.4182
upperneck 13.6284 6.18951 14.6355
head 4.06182 3.32318 6.93095
rclavicle 5.56597e-015 -5.08889e-014
rhumerus -37.4553 1.65816 -56.938
rradius 129.884
rwrist -12.6497
rhand -22.7642 9.48135
rfingers 7.12502
rthumb 3.67085 -20.4668
lclavicle 5.56597e-015 -5.08889e-014
lhumerus 46.2619 -32.8197 57.7986
lradius 90.3312
lwrist 16.2548
lhand -10.4301 12.3676
lfingers 7.12502
lthumb 15.5694 41.7609
rfemur 3.27896 9.75696 22.4264
rtibia 50.6978
rfoot -3.44871 -1.81624
rtoes -23.0723
lfemur -41.2189 -12.9559 -3.0292
ltibia 42.4974
lfoot -2.2529 -7.22566
ltoes -5.61527
101
root 1.84241 17.3436 0.914762 3.7692 -12.9468 -3.33061
lowerback 8.44147 1.85397 -8.42022
upperback 1.50573 1.45004 -6.07815
thorax -3.22396 0.762531 -1.78434
lowerneck -5.31536 4.70883 -12.4653
upperneck 13.6402 5.73961 15.3536
head 4.01647 3.12837 7.14892
rclavicle -1.35174e-014 5.08889e-014
rhumerus -34.406 1.0464 -56.0746
rradius 129.615
rwrist -12.3055
rhand -22.6111 9.38253
rfingers 7.12502
rthumb 3.81864 -20.563
lclavicle -1.35174e-014 5.08889e-014
lhumerus 45.1272 -35.3003 58.0135
lradius 93.1478
lwrist 16.2774
lhand -10.1974 13.1174
lfingers 7.12502
lthumb 15.7936 42.4931
rfemur 2.88857 8.92717 23.1449
rtibia 50.5451
rfoot -4.39161 -1.60607
rtoes -24.4907
lfemur -42.2521 -13.4733 -2.89159
ltibia 42.9229
lfoot -2.22424 -7.83951
ltoes -4.54408
102
root 1.83521 17.335 0.973749 4.09879 -11.593 -3.36465
lowerback 8.14938 2.18337 -8.33412
upperback 1.67264 1.9417 -6.35485
thorax -2.88824 0.994624 -2.16307
lowerneck -4.93015 4.48592 -12.2011
upperneck 13.7898 5.29419 15.9114
head 4.04376 2.94315 7.27247
rclavicle -1.51076e-014 1.27222e-014
rhumerus -31.2447 0.472288 -55.2289
rradius 129.181
rwrist -11.9176
rhand -22.5461 8.69505
rfingers 7.12502
rthumb 3.88143 -21.2493
lclavicle -1.51076e-014 1.27222e-014
lhumerus 44.2306 -37.7898 57.8138
lradius 95.8228
lwrist 16.1762
lhand -10.113 13.414
lfingers 7.12502
lthumb 15.8748 42.7832
rfemur 2.67343 8.11485 23.7763
rtibia 50.3125
rfoot -5.37248 -1.34997
rtoes -24.3962
lfemur -43.0915 -13.9983 -2.92325
ltibia 43.2695
lfoot -2.24648 -8.47944
ltoes -4.6775
103
root 1.8302 17.3257 1.02506 4.38963 -10.2533 -3.56435
lowerback 7.94226 1.99874 -8.57243
upperback 1.89695 1.74673 -5.9086
thorax -2.55235 0.891064 -1.52693
lowerneck -5.29041 4.70775 -13.5863
upperneck 14.4365 5.65622 16.5278
head 4.17171 3.10161 7.75908
rclavicle 1.27222e-014 4.13472e-014
rhumerus -26.3261 1.55869 -53.7955
rradius 128.369
rwrist -12.0103
rhand -22.4428 7.72506
rfingers 7.12502
rthumb 3.98114 -22.2175
lclavicle 1.27222e-014 4.13472e-014
lhumerus 42.3406 -38.4774 58.3672
lradius 98.3998
lwrist 15.664
lhand -10.166 14.0079
lfingers 7.12502
lthumb 15.8237 43.3812
rfemur 2.46717 7.30348 24.5978
rtibia 50.0599
rfoot -6.39647 -1.19752
rtoes -24.6254
lfemur -43.8379 -14.378 -2.82215
ltibia 43.5406
lfoot -2.2046 -9.23155
ltoes -4.93956
